<svg xmlns="http://www.w3.org/2000/svg" id="prefix__icon_support" width="32" height="32" data-name="icon/support" viewBox="0 0 32 32">
    <defs>
        <style>
            .prefix__cls-2{fill:#1e3a58}.prefix__cls-3{fill:none}
        </style>
    </defs>
    <g id="prefix__Group_10705" data-name="Group 10705" transform="translate(-503.576 -1424.417)">
        <g id="prefix__icon_top_Menu_Items_support" data-name="icon top Menu Items support">
            <g id="prefix__Holder">
                <g id="prefix__Header_Icons_download_app_icon" data-name="Header Icons download app icon">
                    <g id="prefix__Header_Icons_support_icon_background" data-name="Header Icons support icon background">
                        <path id="prefix__Path_17470" d="M529.4 1436.72a6.993 6.993 0 0 0-.63-3.53 4.412 4.412 0 0 0-1.82-1.86 6.456 6.456 0 0 0-3.41-.64h-7.77a5.362 5.362 0 0 0-.56-.02 6.472 6.472 0 0 0-2.88.66 4.507 4.507 0 0 0-1.81 1.86 6.949 6.949 0 0 0-.62 3.51v11.26a2.2 2.2 0 0 0 2.17 2.23 2.128 2.128 0 0 0 1.66-.8l1.63-2a3.491 3.491 0 0 1 .53-.56 1.1 1.1 0 0 1 .36-.18 3.027 3.027 0 0 1 .79-.05h6.48a6.454 6.454 0 0 0 3.44-.65 4.279 4.279 0 0 0 1.81-1.86 6.936 6.936 0 0 0 .63-3.51zm-1.94 6.64a2.922 2.922 0 0 1-1.21 1.25 5.167 5.167 0 0 1-2.76.46h-6.46a4.154 4.154 0 0 0-1.17.11 2.6 2.6 0 0 0-.82.4 4.354 4.354 0 0 0-.82.84l-1.64 2.03a.667.667 0 0 1-1.18-.44v-11.31a5.6 5.6 0 0 1 .43-2.79 3 3 0 0 1 1.21-1.26 5.265 5.265 0 0 1 2.76-.46h7.72a5.094 5.094 0 0 1 2.71.45l.02.01a2.928 2.928 0 0 1 1.2 1.24 5.679 5.679 0 0 1 .45 2.84v3.83a5.647 5.647 0 0 1-.44 2.8z" data-name="Path 17470" style="fill:transparent"/>
                    </g>
                    <g id="prefix__Header_Icons_support_icon" data-name="Header Icons support icon">
                        <g id="prefix__Combined_Shape" data-name="Combined Shape">
                            <path id="prefix__Path_17471" d="M529.852 1436.868a7.173 7.173 0 0 0-.645-3.616 4.517 4.517 0 0 0-1.862-1.905 6.6 6.6 0 0 0-3.489-.656h-7.95a5.479 5.479 0 0 0-.573-.02 6.615 6.615 0 0 0-2.947.676 4.614 4.614 0 0 0-1.852 1.905 7.126 7.126 0 0 0-.634 3.6v11.535a2.252 2.252 0 0 0 2.22 2.284 2.177 2.177 0 0 0 1.7-.819l1.668-2.049a3.574 3.574 0 0 1 .542-.574 1.13 1.13 0 0 1 .368-.184 3.092 3.092 0 0 1 .808-.051h6.63a6.6 6.6 0 0 0 3.52-.666 4.381 4.381 0 0 0 1.852-1.905 7.114 7.114 0 0 0 .645-3.6zm-1.985 6.8a2.991 2.991 0 0 1-1.238 1.281 5.28 5.28 0 0 1-2.824.471H517.2a4.245 4.245 0 0 0-1.2.113 2.663 2.663 0 0 0-.839.41 4.459 4.459 0 0 0-.839.861l-1.678 2.079a.683.683 0 0 1-1.207-.451v-11.586a5.744 5.744 0 0 1 .44-2.858 3.073 3.073 0 0 1 1.238-1.291 5.381 5.381 0 0 1 2.824-.471h7.9a5.207 5.207 0 0 1 2.773.461l.02.01a3 3 0 0 1 1.228 1.27 5.825 5.825 0 0 1 .46 2.909v3.923a5.792 5.792 0 0 1-.453 2.871z" class="prefix__cls-2" data-name="Path 17471" transform="translate(-.3 -.25)"/>
                            <path id="prefix__Path_17472" d="M527.9 1440.56v-3.83a5.679 5.679 0 0 0-.45-2.84 2.928 2.928 0 0 0-1.2-1.24l-.02-.01a5.094 5.094 0 0 0-2.71-.45h-7.72a5.265 5.265 0 0 0-2.76.46 3 3 0 0 0-1.21 1.26 5.6 5.6 0 0 0-.43 2.79v11.31a.667.667 0 0 0 1.18.44l1.64-2.03a4.354 4.354 0 0 1 .82-.84 2.6 2.6 0 0 1 .82-.4 4.154 4.154 0 0 1 1.17-.11h6.46a5.167 5.167 0 0 0 2.76-.46 2.922 2.922 0 0 0 1.21-1.25 5.647 5.647 0 0 0 .44-2.8zm-5.25-1.12a1 1 0 1 1 1-1 1 1 0 0 1-1 1zm-6 0a1 1 0 1 1 1-1 1 1 0 0 1-1 1zm3 0a1 1 0 1 1 1-1 1 1 0 0 1-1 1z" class="prefix__cls-3" data-name="Path 17472"/>
                            <circle id="prefix__Ellipse_539" cx="1" cy="1" r="1" class="prefix__cls-2" data-name="Ellipse 539" transform="translate(521.65 1437.44)"/>
                            <circle id="prefix__Ellipse_540" cx="1" cy="1" r="1" class="prefix__cls-2" data-name="Ellipse 540" transform="translate(518.65 1437.44)"/>
                            <circle id="prefix__Ellipse_541" cx="1" cy="1" r="1" class="prefix__cls-2" data-name="Ellipse 541" transform="translate(515.65 1437.44)"/>
                        </g>
                    </g>
                </g>
            </g>
        </g>
    </g>
    <g id="prefix__icon_top_Menu_Items_Login" data-name="icon top Menu Items Login" transform="translate(-468.069 -1425.44)">
        <path id="prefix__Header_Icons_support_icon_background-2" d="M0 0H32V32H0z" class="prefix__cls-3" data-name="Header Icons support icon background-2" transform="translate(468.069 1425.44)"/>
    </g>
</svg>
