<svg xmlns="http://www.w3.org/2000/svg" width="1324" height="268" viewBox="0 0 1324 268">
    <defs>
        <style>
            .prefix__cls-1{fill:#dedee7}
        </style>
    </defs>
    <g id="prefix__Group_11057" data-name="Group 11057" transform="translate(13233 -6843)">
        <circle id="prefix__Ellipse_223" cx="2" cy="2" r="2" class="prefix__cls-1" data-name="Ellipse 223" transform="translate(-13233 6843)"/>
        <circle id="prefix__Ellipse_222" cx="2" cy="2" r="2" class="prefix__cls-1" data-name="Ellipse 222" transform="translate(-13189 6843)"/>
        <circle id="prefix__Ellipse_221" cx="2" cy="2" r="2" class="prefix__cls-1" data-name="Ellipse 221" transform="translate(-13145 6843)"/>
        <circle id="prefix__Ellipse_218" cx="2" cy="2" r="2" class="prefix__cls-1" data-name="Ellipse 218" transform="translate(-12001 6843)"/>
        <circle id="prefix__Ellipse_219" cx="2" cy="2" r="2" class="prefix__cls-1" data-name="Ellipse 219" transform="translate(-11957 6843)"/>
        <circle id="prefix__Ellipse_220" cx="2" cy="2" r="2" class="prefix__cls-1" data-name="Ellipse 220" transform="translate(-11913 6843)"/>
        <circle id="prefix__Ellipse_14" cx="2" cy="2" r="2" class="prefix__cls-1" data-name="Ellipse 14" transform="translate(-13233 6931)"/>
        <circle id="prefix__Ellipse_382" cx="2" cy="2" r="2" class="prefix__cls-1" data-name="Ellipse 382" transform="translate(-13233 6887)"/>
        <circle id="prefix__Ellipse_14-2" cx="2" cy="2" r="2" class="prefix__cls-1" data-name="Ellipse 14" transform="translate(-13189 6931)"/>
        <circle id="prefix__Ellipse_383" cx="2" cy="2" r="2" class="prefix__cls-1" data-name="Ellipse 383" transform="translate(-13189 6887)"/>
        <circle id="prefix__Ellipse_14-3" cx="2" cy="2" r="2" class="prefix__cls-1" data-name="Ellipse 14" transform="translate(-13145 6931)"/>
        <circle id="prefix__Ellipse_384" cx="2" cy="2" r="2" class="prefix__cls-1" data-name="Ellipse 384" transform="translate(-13145 6887)"/>
        <circle id="prefix__Ellipse_14-4" cx="2" cy="2" r="2" class="prefix__cls-1" data-name="Ellipse 14" transform="translate(-13101 6931)"/>
        <circle id="prefix__Ellipse_385" cx="2" cy="2" r="2" class="prefix__cls-1" data-name="Ellipse 385" transform="translate(-13101 6887)"/>
        <circle id="prefix__Ellipse_14-5" cx="2" cy="2" r="2" class="prefix__cls-1" data-name="Ellipse 14" transform="translate(-13057 6931)"/>
        <circle id="prefix__Ellipse_386" cx="2" cy="2" r="2" class="prefix__cls-1" data-name="Ellipse 386" transform="translate(-13057 6887)"/>
        <circle id="prefix__Ellipse_14-6" cx="2" cy="2" r="2" class="prefix__cls-1" data-name="Ellipse 14" transform="translate(-13013 6931)"/>
        <circle id="prefix__Ellipse_387" cx="2" cy="2" r="2" class="prefix__cls-1" data-name="Ellipse 387" transform="translate(-13013 6887)"/>
        <circle id="prefix__Ellipse_14-7" cx="2" cy="2" r="2" class="prefix__cls-1" data-name="Ellipse 14" transform="translate(-12969 6931)"/>
        <circle id="prefix__Ellipse_388" cx="2" cy="2" r="2" class="prefix__cls-1" data-name="Ellipse 388" transform="translate(-12969 6887)"/>
        <circle id="prefix__Ellipse_14-8" cx="2" cy="2" r="2" class="prefix__cls-1" data-name="Ellipse 14" transform="translate(-12925 6931)"/>
        <circle id="prefix__Ellipse_389" cx="2" cy="2" r="2" class="prefix__cls-1" data-name="Ellipse 389" transform="translate(-12925 6887)"/>
        <circle id="prefix__Ellipse_14-9" cx="2" cy="2" r="2" class="prefix__cls-1" data-name="Ellipse 14" transform="translate(-12881 6931)"/>
        <circle id="prefix__Ellipse_390" cx="2" cy="2" r="2" class="prefix__cls-1" data-name="Ellipse 390" transform="translate(-12881 6887)"/>
        <circle id="prefix__Ellipse_14-10" cx="2" cy="2" r="2" class="prefix__cls-1" data-name="Ellipse 14" transform="translate(-12837 6931)"/>
        <circle id="prefix__Ellipse_391" cx="2" cy="2" r="2" class="prefix__cls-1" data-name="Ellipse 391" transform="translate(-12837 6887)"/>
        <circle id="prefix__Ellipse_14-11" cx="2" cy="2" r="2" class="prefix__cls-1" data-name="Ellipse 14" transform="translate(-12793 6931)"/>
        <circle id="prefix__Ellipse_392" cx="2" cy="2" r="2" class="prefix__cls-1" data-name="Ellipse 392" transform="translate(-12793 6887)"/>
        <circle id="prefix__Ellipse_14-12" cx="2" cy="2" r="2" class="prefix__cls-1" data-name="Ellipse 14" transform="translate(-12749 6931)"/>
        <circle id="prefix__Ellipse_393" cx="2" cy="2" r="2" class="prefix__cls-1" data-name="Ellipse 393" transform="translate(-12749 6887)"/>
        <circle id="prefix__Ellipse_14-13" cx="2" cy="2" r="2" class="prefix__cls-1" data-name="Ellipse 14" transform="translate(-12705 6931)"/>
        <circle id="prefix__Ellipse_394" cx="2" cy="2" r="2" class="prefix__cls-1" data-name="Ellipse 394" transform="translate(-12705 6887)"/>
        <circle id="prefix__Ellipse_14-14" cx="2" cy="2" r="2" class="prefix__cls-1" data-name="Ellipse 14" transform="translate(-12661 6931)"/>
        <circle id="prefix__Ellipse_395" cx="2" cy="2" r="2" class="prefix__cls-1" data-name="Ellipse 395" transform="translate(-12661 6887)"/>
        <circle id="prefix__Ellipse_14-15" cx="2" cy="2" r="2" class="prefix__cls-1" data-name="Ellipse 14" transform="translate(-12617 6931)"/>
        <circle id="prefix__Ellipse_396" cx="2" cy="2" r="2" class="prefix__cls-1" data-name="Ellipse 396" transform="translate(-12617 6887)"/>
        <circle id="prefix__Ellipse_14-16" cx="2" cy="2" r="2" class="prefix__cls-1" data-name="Ellipse 14" transform="translate(-12573 6931)"/>
        <circle id="prefix__Ellipse_397" cx="2" cy="2" r="2" class="prefix__cls-1" data-name="Ellipse 397" transform="translate(-12573 6887)"/>
        <circle id="prefix__Ellipse_14-17" cx="2" cy="2" r="2" class="prefix__cls-1" data-name="Ellipse 14" transform="translate(-12529 6931)"/>
        <circle id="prefix__Ellipse_398" cx="2" cy="2" r="2" class="prefix__cls-1" data-name="Ellipse 398" transform="translate(-12529 6887)"/>
        <circle id="prefix__Ellipse_14-18" cx="2" cy="2" r="2" class="prefix__cls-1" data-name="Ellipse 14" transform="translate(-12485 6931)"/>
        <circle id="prefix__Ellipse_399" cx="2" cy="2" r="2" class="prefix__cls-1" data-name="Ellipse 399" transform="translate(-12485 6887)"/>
        <circle id="prefix__Ellipse_14-19" cx="2" cy="2" r="2" class="prefix__cls-1" data-name="Ellipse 14" transform="translate(-12441 6931)"/>
        <circle id="prefix__Ellipse_400" cx="2" cy="2" r="2" class="prefix__cls-1" data-name="Ellipse 400" transform="translate(-12441 6887)"/>
        <circle id="prefix__Ellipse_14-20" cx="2" cy="2" r="2" class="prefix__cls-1" data-name="Ellipse 14" transform="translate(-12397 6931)"/>
        <circle id="prefix__Ellipse_401" cx="2" cy="2" r="2" class="prefix__cls-1" data-name="Ellipse 401" transform="translate(-12397 6887)"/>
        <circle id="prefix__Ellipse_14-21" cx="2" cy="2" r="2" class="prefix__cls-1" data-name="Ellipse 14" transform="translate(-12353 6931)"/>
        <circle id="prefix__Ellipse_402" cx="2" cy="2" r="2" class="prefix__cls-1" data-name="Ellipse 402" transform="translate(-12353 6887)"/>
        <circle id="prefix__Ellipse_14-22" cx="2" cy="2" r="2" class="prefix__cls-1" data-name="Ellipse 14" transform="translate(-12309 6931)"/>
        <circle id="prefix__Ellipse_403" cx="2" cy="2" r="2" class="prefix__cls-1" data-name="Ellipse 403" transform="translate(-12309 6887)"/>
        <circle id="prefix__Ellipse_14-23" cx="2" cy="2" r="2" class="prefix__cls-1" data-name="Ellipse 14" transform="translate(-12265 6931)"/>
        <circle id="prefix__Ellipse_404" cx="2" cy="2" r="2" class="prefix__cls-1" data-name="Ellipse 404" transform="translate(-12265 6887)"/>
        <circle id="prefix__Ellipse_14-24" cx="2" cy="2" r="2" class="prefix__cls-1" data-name="Ellipse 14" transform="translate(-12221 6931)"/>
        <circle id="prefix__Ellipse_405" cx="2" cy="2" r="2" class="prefix__cls-1" data-name="Ellipse 405" transform="translate(-12221 6887)"/>
        <circle id="prefix__Ellipse_14-25" cx="2" cy="2" r="2" class="prefix__cls-1" data-name="Ellipse 14" transform="translate(-12177 6931)"/>
        <circle id="prefix__Ellipse_406" cx="2" cy="2" r="2" class="prefix__cls-1" data-name="Ellipse 406" transform="translate(-12177 6887)"/>
        <circle id="prefix__Ellipse_14-26" cx="2" cy="2" r="2" class="prefix__cls-1" data-name="Ellipse 14" transform="translate(-12133 6931)"/>
        <circle id="prefix__Ellipse_407" cx="2" cy="2" r="2" class="prefix__cls-1" data-name="Ellipse 407" transform="translate(-12133 6887)"/>
        <circle id="prefix__Ellipse_14-27" cx="2" cy="2" r="2" class="prefix__cls-1" data-name="Ellipse 14" transform="translate(-12089 6931)"/>
        <circle id="prefix__Ellipse_408" cx="2" cy="2" r="2" class="prefix__cls-1" data-name="Ellipse 408" transform="translate(-12089 6887)"/>
        <circle id="prefix__Ellipse_14-28" cx="2" cy="2" r="2" class="prefix__cls-1" data-name="Ellipse 14" transform="translate(-12045 6931)"/>
        <circle id="prefix__Ellipse_409" cx="2" cy="2" r="2" class="prefix__cls-1" data-name="Ellipse 409" transform="translate(-12045 6887)"/>
        <circle id="prefix__Ellipse_14-29" cx="2" cy="2" r="2" class="prefix__cls-1" data-name="Ellipse 14" transform="translate(-12001 6931)"/>
        <circle id="prefix__Ellipse_410" cx="2" cy="2" r="2" class="prefix__cls-1" data-name="Ellipse 410" transform="translate(-12001 6887)"/>
        <circle id="prefix__Ellipse_14-30" cx="2" cy="2" r="2" class="prefix__cls-1" data-name="Ellipse 14" transform="translate(-11957 6931)"/>
        <circle id="prefix__Ellipse_411" cx="2" cy="2" r="2" class="prefix__cls-1" data-name="Ellipse 411" transform="translate(-11957 6887)"/>
        <circle id="prefix__Ellipse_14-31" cx="2" cy="2" r="2" class="prefix__cls-1" data-name="Ellipse 14" transform="translate(-11913 6931)"/>
        <circle id="prefix__Ellipse_412" cx="2" cy="2" r="2" class="prefix__cls-1" data-name="Ellipse 412" transform="translate(-11913 6887)"/>
        <circle id="prefix__Ellipse_14-32" cx="2" cy="2" r="2" class="prefix__cls-1" data-name="Ellipse 14" transform="translate(-13233 6975)"/>
        <circle id="prefix__Ellipse_14-33" cx="2" cy="2" r="2" class="prefix__cls-1" data-name="Ellipse 14" transform="translate(-13189 6975)"/>
        <circle id="prefix__Ellipse_14-34" cx="2" cy="2" r="2" class="prefix__cls-1" data-name="Ellipse 14" transform="translate(-13145 6975)"/>
        <circle id="prefix__Ellipse_14-35" cx="2" cy="2" r="2" class="prefix__cls-1" data-name="Ellipse 14" transform="translate(-13101 6975)"/>
        <circle id="prefix__Ellipse_14-36" cx="2" cy="2" r="2" class="prefix__cls-1" data-name="Ellipse 14" transform="translate(-13057 6975)"/>
        <circle id="prefix__Ellipse_14-37" cx="2" cy="2" r="2" class="prefix__cls-1" data-name="Ellipse 14" transform="translate(-13013 6975)"/>
        <circle id="prefix__Ellipse_14-38" cx="2" cy="2" r="2" class="prefix__cls-1" data-name="Ellipse 14" transform="translate(-12969 6975)"/>
        <circle id="prefix__Ellipse_14-39" cx="2" cy="2" r="2" class="prefix__cls-1" data-name="Ellipse 14" transform="translate(-12925 6975)"/>
        <circle id="prefix__Ellipse_14-40" cx="2" cy="2" r="2" class="prefix__cls-1" data-name="Ellipse 14" transform="translate(-12881 6975)"/>
        <circle id="prefix__Ellipse_14-41" cx="2" cy="2" r="2" class="prefix__cls-1" data-name="Ellipse 14" transform="translate(-12837 6975)"/>
        <circle id="prefix__Ellipse_14-42" cx="2" cy="2" r="2" class="prefix__cls-1" data-name="Ellipse 14" transform="translate(-12793 6975)"/>
        <circle id="prefix__Ellipse_14-43" cx="2" cy="2" r="2" class="prefix__cls-1" data-name="Ellipse 14" transform="translate(-12749 6975)"/>
        <circle id="prefix__Ellipse_14-44" cx="2" cy="2" r="2" class="prefix__cls-1" data-name="Ellipse 14" transform="translate(-12705 6975)"/>
        <circle id="prefix__Ellipse_14-45" cx="2" cy="2" r="2" class="prefix__cls-1" data-name="Ellipse 14" transform="translate(-12661 6975)"/>
        <circle id="prefix__Ellipse_14-46" cx="2" cy="2" r="2" class="prefix__cls-1" data-name="Ellipse 14" transform="translate(-12617 6975)"/>
        <circle id="prefix__Ellipse_14-47" cx="2" cy="2" r="2" class="prefix__cls-1" data-name="Ellipse 14" transform="translate(-12573 6975)"/>
        <circle id="prefix__Ellipse_14-48" cx="2" cy="2" r="2" class="prefix__cls-1" data-name="Ellipse 14" transform="translate(-12529 6975)"/>
        <circle id="prefix__Ellipse_14-49" cx="2" cy="2" r="2" class="prefix__cls-1" data-name="Ellipse 14" transform="translate(-12485 6975)"/>
        <circle id="prefix__Ellipse_14-50" cx="2" cy="2" r="2" class="prefix__cls-1" data-name="Ellipse 14" transform="translate(-12441 6975)"/>
        <circle id="prefix__Ellipse_14-51" cx="2" cy="2" r="2" class="prefix__cls-1" data-name="Ellipse 14" transform="translate(-12397 6975)"/>
        <circle id="prefix__Ellipse_14-52" cx="2" cy="2" r="2" class="prefix__cls-1" data-name="Ellipse 14" transform="translate(-12353 6975)"/>
        <circle id="prefix__Ellipse_14-53" cx="2" cy="2" r="2" class="prefix__cls-1" data-name="Ellipse 14" transform="translate(-12309 6975)"/>
        <circle id="prefix__Ellipse_14-54" cx="2" cy="2" r="2" class="prefix__cls-1" data-name="Ellipse 14" transform="translate(-12265 6975)"/>
        <circle id="prefix__Ellipse_14-55" cx="2" cy="2" r="2" class="prefix__cls-1" data-name="Ellipse 14" transform="translate(-12221 6975)"/>
        <circle id="prefix__Ellipse_14-56" cx="2" cy="2" r="2" class="prefix__cls-1" data-name="Ellipse 14" transform="translate(-12177 6975)"/>
        <circle id="prefix__Ellipse_14-57" cx="2" cy="2" r="2" class="prefix__cls-1" data-name="Ellipse 14" transform="translate(-12133 6975)"/>
        <circle id="prefix__Ellipse_14-58" cx="2" cy="2" r="2" class="prefix__cls-1" data-name="Ellipse 14" transform="translate(-12089 6975)"/>
        <circle id="prefix__Ellipse_14-59" cx="2" cy="2" r="2" class="prefix__cls-1" data-name="Ellipse 14" transform="translate(-12045 6975)"/>
        <circle id="prefix__Ellipse_14-60" cx="2" cy="2" r="2" class="prefix__cls-1" data-name="Ellipse 14" transform="translate(-12001 6975)"/>
        <circle id="prefix__Ellipse_14-61" cx="2" cy="2" r="2" class="prefix__cls-1" data-name="Ellipse 14" transform="translate(-11957 6975)"/>
        <circle id="prefix__Ellipse_14-62" cx="2" cy="2" r="2" class="prefix__cls-1" data-name="Ellipse 14" transform="translate(-11913 6975)"/>
        <circle id="prefix__Ellipse_14-63" cx="2" cy="2" r="2" class="prefix__cls-1" data-name="Ellipse 14" transform="translate(-13233 7019)"/>
        <circle id="prefix__Ellipse_14-64" cx="2" cy="2" r="2" class="prefix__cls-1" data-name="Ellipse 14" transform="translate(-13189 7019)"/>
        <circle id="prefix__Ellipse_14-65" cx="2" cy="2" r="2" class="prefix__cls-1" data-name="Ellipse 14" transform="translate(-13145 7019)"/>
        <circle id="prefix__Ellipse_14-66" cx="2" cy="2" r="2" class="prefix__cls-1" data-name="Ellipse 14" transform="translate(-13101 7019)"/>
        <circle id="prefix__Ellipse_14-67" cx="2" cy="2" r="2" class="prefix__cls-1" data-name="Ellipse 14" transform="translate(-13057 7019)"/>
        <circle id="prefix__Ellipse_14-68" cx="2" cy="2" r="2" class="prefix__cls-1" data-name="Ellipse 14" transform="translate(-13013 7019)"/>
        <circle id="prefix__Ellipse_14-69" cx="2" cy="2" r="2" class="prefix__cls-1" data-name="Ellipse 14" transform="translate(-12133 7019)"/>
        <circle id="prefix__Ellipse_14-70" cx="2" cy="2" r="2" class="prefix__cls-1" data-name="Ellipse 14" transform="translate(-12089 7019)"/>
        <circle id="prefix__Ellipse_14-71" cx="2" cy="2" r="2" class="prefix__cls-1" data-name="Ellipse 14" transform="translate(-12045 7019)"/>
        <circle id="prefix__Ellipse_14-72" cx="2" cy="2" r="2" class="prefix__cls-1" data-name="Ellipse 14" transform="translate(-12001 7019)"/>
        <circle id="prefix__Ellipse_14-73" cx="2" cy="2" r="2" class="prefix__cls-1" data-name="Ellipse 14" transform="translate(-11957 7019)"/>
        <circle id="prefix__Ellipse_14-74" cx="2" cy="2" r="2" class="prefix__cls-1" data-name="Ellipse 14" transform="translate(-11913 7019)"/>
        <circle id="prefix__Ellipse_14-75" cx="2" cy="2" r="2" class="prefix__cls-1" data-name="Ellipse 14" transform="translate(-13233 7063)"/>
        <circle id="prefix__Ellipse_224" cx="2" cy="2" r="2" class="prefix__cls-1" data-name="Ellipse 224" transform="translate(-13233 7105)"/>
        <circle id="prefix__Ellipse_14-76" cx="2" cy="2" r="2" class="prefix__cls-1" data-name="Ellipse 14" transform="translate(-13189 7063)"/>
        <circle id="prefix__Ellipse_14-77" cx="2" cy="2" r="2" class="prefix__cls-1" data-name="Ellipse 14" transform="translate(-11957 7063)"/>
        <circle id="prefix__Ellipse_14-78" cx="2" cy="2" r="2" class="prefix__cls-1" data-name="Ellipse 14" transform="translate(-11913 7063)"/>
        <circle id="prefix__Ellipse_14-79" cx="2" cy="2" r="2" class="prefix__cls-1" data-name="Ellipse 14" transform="translate(-11913 7107)"/>
    </g>
</svg>
