<svg xmlns="http://www.w3.org/2000/svg" width="32" height="32" viewBox="0 0 32 32"><defs><style>.prefix__cls-1{fill:none}</style></defs><g id="prefix__Group_16523" data-name="Group 16523" transform="translate(-313 -47)"><g id="prefix__icon_Login" data-name="icon/Login" transform="translate(313 47)"><path id="prefix__Header_Icons_support_icon_background-2" d="M0 0H32V32H0z" class="prefix__cls-1" data-name="Header Icons support icon background-2"/><g id="prefix__Group_12182" data-name="Group 12182" transform="translate(-467.02 -1424.54)"><g id="prefix__Rectangle_2457" data-name="Rectangle 2457" transform="translate(473.02 1429.54)"><path id="prefix__Path_17473" d="M490.207 1437.229h-1.055v-1.929a5.685 5.685 0 0 0-5.719-5.624h-.01a5.676 5.676 0 0 0-5.719 5.614v1.936h-1.272a3.094 3.094 0 0 0-3.113 3.06v8.34a3.085 3.085 0 0 0 3.113 3.05h13.775a3.085 3.085 0 0 0 3.113-3.05v-8.34a3.094 3.094 0 0 0-3.113-3.057zm-10.951-1.946a4.134 4.134 0 0 1 4.168-4.084h.01a4.149 4.149 0 0 1 4.168 4.094v1.936h-8.345zm12.513 13.346a1.545 1.545 0 0 1-1.562 1.53h-13.774a1.545 1.545 0 0 1-1.561-1.53v-8.34a1.553 1.553 0 0 1 1.561-1.54h13.775a1.553 1.553 0 0 1 1.562 1.54z" data-name="Path 17473" transform="translate(-473.32 -1429.68)" style="fill:#1e3a58"/><path id="prefix__Path_17474" d="M487.13 1435.22v1.91h-8.07v-1.92a4.037 4.037 0 0 1 4.03-4.03h.01a4.052 4.052 0 0 1 4.03 4.04z" class="prefix__cls-1" data-name="Path 17474" transform="translate(-472.467 -1429.54)"/><path id="prefix__Path_17475" d="M492.16 1440.15v8.23a1.557 1.557 0 0 1-1.6 1.51h-14.138a1.557 1.557 0 0 1-1.6-1.51v-8.23a1.565 1.565 0 0 1 1.6-1.52h14.135a1.565 1.565 0 0 1 1.603 1.52z" class="prefix__cls-1" data-name="Path 17475" transform="translate(-473.02 -1429.54)"/></g></g></g></g></svg>