<svg xmlns="http://www.w3.org/2000/svg" width="103.747" height="22.5" viewBox="0 0 103.747 22.5">
    <g id="prefix__monday-ar21_1_" data-name="monday-ar21 (1)">
        <g id="prefix__Group_12439" data-name="Group 12439">
            <path id="prefix__Path_13578" d="M25.462 67.381a4.584 4.584 0 0 1-3.88-7.015L29.83 47.2a4.583 4.583 0 0 1 7.77 4.86l-8.251 13.171a4.579 4.579 0 0 1-3.887 2.15z" data-name="Path 13578" transform="translate(-20.885 -44.881)" style="fill:#ff3d57"/>
            <path id="prefix__Path_13579" d="M39.675 67.381a4.584 4.584 0 0 1-3.887-7.015L44.041 47.2a4.583 4.583 0 1 1 7.759 4.86l-8.24 13.171a4.579 4.579 0 0 1-3.887 2.15z" data-name="Path 13579" transform="translate(-20.885 -44.881)" style="fill:#ffcb00"/>
            <ellipse id="prefix__Ellipse_205" cx="4.59" cy="4.475" data-name="Ellipse 205" rx="4.59" ry="4.475" transform="translate(28.409 13.548)" style="fill:#00d647"/>
        </g>
        <path id="prefix__Path_13580" d="M108.073 23.58h-2.66l-1.864 4.776-1.849-4.776h-2.668l3.236 7.531-2.011 4.98h2.643zM92.1 27.768a2.062 2.062 0 0 0 2.112 2 2 2 0 1 0 0-3.991 2.067 2.067 0 0 0-2.112 2zm4.133 4.206v-.952a3.218 3.218 0 0 1-2.443 1.115 4.368 4.368 0 0 1 0-8.736 3.08 3.08 0 0 1 2.443 1.115v-.932h2.48v8.393zm-7.428 0h-2.48v-1.042a2.765 2.765 0 0 1-2.463 1.221A4.12 4.12 0 0 1 79.8 27.8a4.137 4.137 0 0 1 4.063-4.4 2.757 2.757 0 0 1 2.463 1.2v-5.587H88.8zm-2.535-4.223a1.943 1.943 0 1 0-1.942 2.03 1.955 1.955 0 0 0 1.94-2.029zm-12.6-.217c0-1.286.665-1.708 1.546-1.708.845 0 1.456.557 1.456 1.672v4.476h2.5V26.96c0-2.391-1.187-3.559-3.074-3.559a2.8 2.8 0 0 0-2.426 1.4v-1.22h-2.5v8.393h2.5zm-7.572 4.583a4.36 4.36 0 1 1 4.368-4.368 4.236 4.236 0 0 1-4.375 4.369zm0-2.443a1.939 1.939 0 1 0-1.898-1.922 1.856 1.856 0 0 0 1.891 1.923zm-8.835-3.848c.737 0 1.384.575 1.384 1.672v4.476h2.48V27.2c0-2.535-1.244-3.811-3.236-3.811a2.873 2.873 0 0 0-2.516 1.492 2.713 2.713 0 0 0-2.694-1.474 2.4 2.4 0 0 0-2.192 1.384v-1.22h-2.502v8.393h2.5v-4.43c0-1.286.7-1.708 1.456-1.708a1.452 1.452 0 0 1 1.384 1.616v4.53h2.5v-4.438c0-1.221.647-1.708 1.433-1.708z" data-name="Path 13580" transform="translate(-4.326 -16.294)" style="fill:#333;fill-rule:evenodd"/>
    </g>
</svg>
