<?xml version="1.0" encoding="UTF-8"?>
<svg width="78px" height="22px" viewBox="0 0 78 22" xmlns="http://www.w3.org/2000/svg" xmlns:xlink="http://www.w3.org/1999/xlink" version="1.1">
 <!-- Generated by Pixelmator Pro 1.5.5 -->
 <path id="prefix__Type" d="M62.5 16.486 C61.312 16.969 60.384 18.64 58.954 19.586 58.885 19.635 58.805 19.666 58.722 19.679 58.601 19.679 58.453 19.558 58.453 19.029 58.51 17.631 58.881 16.264 59.539 15.029 61.275 10.529 64.245 6.675 66.891 2.47 67.098 2.156 67.211 1.788 67.216 1.412 67.196 1.092 67.104 0.781 66.947 0.502 66.648 0.141 66.188 -0.047 65.722 0.002 65.397 0.002 65.1 0.03 64.722 0.03 63.339 0.03 63.042 2.063 62.722 2.592 60.451 6.319 58.438 10.197 56.698 14.2 56.41 14.933 56.104 15.667 55.872 16.419 54.591 16.79 53.635 18.591 52.14 19.584 52.071 19.633 51.991 19.664 51.908 19.677 51.787 19.677 51.639 19.556 51.639 19.027 51.696 17.629 52.067 16.262 52.725 15.027 54.461 10.527 57.431 6.673 60.077 2.468 60.284 2.154 60.397 1.786 60.402 1.41 60.382 1.09 60.29 0.779 60.133 0.5 59.828 0.14 59.367 -0.046 58.898 0 58.573 0 58.276 0.028 57.898 0.028 56.515 0.028 56.218 2.061 55.898 2.59 53.627 6.318 51.615 10.197 49.876 14.2 49.776 14.469 49.676 14.729 49.56 15 49.528 15.021 49.494 15.039 49.46 15.056 47.96 15.938 46.694 17.497 44.874 18.556 44.188 19.06 43.393 19.395 42.553 19.531 42.358 19.529 42.166 19.478 41.996 19.382 41.716 19.176 41.526 18.87 41.467 18.528 41.467 18.379 41.495 18.352 41.792 18.175 44.295 16.554 46.502 14.517 48.318 12.151 49.177 11.12 49.719 9.863 49.878 8.531 49.959 7.687 49.481 6.89 48.699 6.563 48.067 6.339 47.402 6.22 46.731 6.21 45.472 6.195 44.262 6.695 43.38 7.593 42.721 8.298 42.08 9.023 41.496 9.765 40.836 9.244 40.013 8.973 39.173 9 38.198 9 36.379 10.207 35.441 10.912 35.292 11.033 35.209 11.088 35.141 11.088 35.113 11.088 35.085 11.06 35.085 10.995 35.123 10.743 35.142 10.489 35.141 10.234 35.131 9.672 34.968 9.123 34.668 8.647 34.326 8.33 33.872 8.16 33.406 8.174 32.606 8.174 31.874 8.555 31.874 8.974 31.874 9.274 32.143 9.382 32.143 9.652 32.083 10.148 31.982 10.639 31.843 11.119 31.343 13.003 30.729 14.851 30.079 16.707 29.726 17.737 28.547 18.647 28.547 19.761 28.594 20.206 28.79 20.621 29.104 20.94 29.633 21.525 29.958 21.74 30.431 21.74 30.668 21.744 30.899 21.661 31.081 21.508 31.49 21.185 31.773 20.728 31.881 20.218 32.605 17.124 34.56 14.459 37.293 12.838 37.948 12.402 38.649 12.038 39.382 11.752 39.594 11.771 39.803 11.818 40.004 11.891 39.312 12.992 38.774 14.182 38.404 15.428 38.286 15.819 38.227 16.226 38.228 16.635 38.243 17.34 38.373 18.037 38.614 18.7 38.859 19.587 39.424 20.351 40.201 20.844 41.168 21.451 42.264 21.822 43.401 21.93 43.853 21.944 44.3 21.831 44.691 21.605 46.1 20.85 47.431 19.958 48.664 18.941 48.637 19.589 48.894 20.216 49.369 20.658 50.037 21.322 50.889 21.77 51.814 21.944 51.989 21.976 52.165 21.995 52.343 22 53.587 22 54.784 20.988 55.713 19.986 55.839 20.229 56.002 20.452 56.196 20.645 56.862 21.309 57.713 21.759 58.637 21.935 58.812 21.967 58.988 21.986 59.166 21.991 60.623 21.991 62.016 20.599 62.981 19.466 63.544 20.299 64.346 20.943 65.281 21.313 65.584 21.463 65.918 21.542 66.256 21.545 67.518 21.545 68.428 20.515 69.134 19.753 70.958 17.573 72.192 14.962 72.717 12.169 72.773 11.937 72.866 11.844 72.986 11.844 73.349 11.85 73.712 11.832 74.072 11.788 74.872 11.667 75.483 11.407 76.216 11.288 76.662 11.195 76.597 11.056 77.016 10.907 77.316 10.786 77.545 10.675 77.545 10.378 77.545 9.878 76.635 9.348 75.252 9.348 74.166 9.348 73.516 9.441 73.08 9.441 72.402 9.441 72.226 9.241 71.79 8.086 71.701 7.852 71.546 7.649 71.344 7.501 70.781 7.038 70.073 6.788 69.344 6.796 67.877 6.796 66.606 8.296 65.724 9.562 65.524 9.862 65.224 10.091 65.019 10.416 63.66 12.183 62.792 14.276 62.5 16.486 Z M24.905 6.47 C25.638 6.47 26.056 6.414 26.14 6.414 26.224 6.414 26.289 6.442 26.289 6.535 26.243 6.741 26.165 6.938 26.057 7.12 24.302 11.008 22.922 15.055 21.935 19.206 21.86 19.534 21.819 19.869 21.814 20.206 21.777 20.638 21.98 21.055 22.343 21.292 22.904 21.673 23.552 21.906 24.227 21.97 24.877 21.97 25.202 21.562 25.202 20.884 25.192 20.321 25.232 19.759 25.323 19.204 26.03 15.269 27.372 11.476 29.296 7.972 29.691 7.364 30.036 6.724 30.326 6.06 30.319 5.975 30.287 5.894 30.233 5.828 31.506 5.541 32.807 5.391 34.113 5.382 34.404 5.431 34.684 5.533 34.939 5.682 35.121 5.922 35.399 6.071 35.7 6.09 36.045 6.056 36.378 5.945 36.675 5.765 37.074 5.521 37.312 5.082 37.297 4.614 37.297 4.114 35.44 2.878 34.15 2.878 32.677 2.89 31.21 3.048 29.769 3.351 28.372 3.611 26.957 3.76 25.536 3.797 24.865 3.779 24.197 3.712 23.536 3.597 23.273 3.598 23.024 3.717 22.858 3.922 22.672 4.315 22.592 4.75 22.626 5.184 22.593 5.412 22.646 5.643 22.775 5.834 23.361 6.339 24.134 6.572 24.901 6.475 Z M46.691 8.856 C46.691 9.125 46.598 9.302 46.245 9.856 46.056 10.255 45.839 10.639 45.595 11.007 44.613 12.296 43.507 13.487 42.295 14.562 41.914 14.915 41.849 14.915 41.795 14.915 41.745 14.911 41.705 14.872 41.702 14.822 41.702 14.729 41.73 14.622 42.027 13.996 42.839 12.34 43.946 10.846 45.294 9.587 45.972 8.909 46.38 8.677 46.529 8.677 46.629 8.677 46.687 8.705 46.687 8.853 Z M69.304 9.617 C69.332 9.617 69.36 9.645 69.397 9.71 69.443 9.83 69.524 9.935 69.629 10.01 69.75 10.103 69.75 10.51 69.75 10.836 69.75 13.686 68.135 16.044 66.55 18.42 66.197 18.949 65.993 19.042 65.817 19.042 65.668 19.042 65.436 18.661 65.344 18.42 65.25 18.145 65.2 17.857 65.196 17.566 65.196 15.273 67.368 11.857 68.816 9.982 69.048 9.648 69.224 9.62 69.308 9.62 Z" fill="#0179bf" fill-opacity="1" stroke="none"/>
 <g id="prefix__Mark">
  <path id="prefix__Board" d="M2.321 3.249 L16.245 3.249 C17.527 3.249 18.565 4.288 18.566 5.57 L18.566 19.494 C18.566 20.775 17.527 21.814 16.245 21.815 L2.321 21.815 C1.039 21.814 0 20.776 0 19.494 L0 5.57 C0 4.288 1.039 3.25 2.321 3.249 Z" fill="#0179bf" fill-opacity="1" stroke="none"/>
  <path id="prefix__Right-List" d="M11.603 5.662 L15.038 5.662 C15.652 5.664 16.15 6.161 16.152 6.776 L16.152 12.671 C16.15 13.286 15.652 13.783 15.038 13.785 L11.603 13.785 C10.988 13.783 10.49 13.285 10.489 12.67 L10.489 6.776 C10.49 6.161 10.988 5.664 11.603 5.662 Z" fill="#ffffff" fill-opacity="1" stroke="none"/>
  <path id="prefix__Left-List" d="M3.527 5.662 L6.962 5.662 C7.576 5.664 8.074 6.161 8.076 6.776 L8.076 17.312 C8.074 17.927 7.576 18.424 6.962 18.426 L3.527 18.426 C2.912 18.424 2.415 17.927 2.413 17.312 L2.413 6.776 C2.415 6.161 2.912 5.664 3.527 5.662 Z" fill="#ffffff" fill-opacity="1" stroke="none"/>
 </g>
</svg>
