<svg xmlns="http://www.w3.org/2000/svg" width="67.277" height="22" viewBox="0 0 67.277 22">
    <defs>
        <style>
            .prefix__cls-1{fill:#73787f}
        </style>
    </defs>
    <g id="prefix__wrike-inc-seeklogo_com">
        <path id="prefix__Path_13581" d="M37.094 264.5l-3.969 11.886-3.611-11.841H25.5l5.9 17.66h3.2l3.9-11.705 3.846 11.717h3.2l5.92-17.66h-3.944L43.911 276.4l-4-11.9z" class="prefix__cls-1" data-name="Path 13581" transform="translate(-25.5 -260.351)"/>
        <path id="prefix__Path_13582" d="M259 323.113V310.6h3.532v2.758c1.088-3.24 4.777-2.758 4.777-2.758v3.465s-4.777-.348-4.777 3.521v5.514H259z" class="prefix__cls-1" data-name="Path 13582" transform="translate(-232.818 -301.259)"/>
        <path id="prefix__Path_13583" d="M347.8 334.589v-7.714l3.532-3.375v11.078H347.8z" class="prefix__cls-1" data-name="Path 13583" transform="translate(-311.661 -312.736)"/>
        <path id="prefix__Path_13584" d="M405.8 285.046v-13.825l3.532-3.521v9.4l4.317-4.564H418l-5.449 5.651 6.3 6.862h-4.575l-4.945-5.393v5.393z" class="prefix__cls-1" data-name="Path 13584" transform="translate(-363.158 -263.192)"/>
        <path id="prefix__Path_13585" d="M524.392 313.125a2.515 2.515 0 0 0-2.6-2.478 2.683 2.683 0 0 0-2.814 2.478zm-6.918 6a6.1 6.1 0 0 1-1.973-4.732 6.334 6.334 0 0 1 1.783-4.608 6.125 6.125 0 0 1 4.653-1.884 5.279 5.279 0 0 1 4.283 1.906 6.913 6.913 0 0 1 1.615 4.631v.908h-8.858c.359 1.682 1.951 2.579 4.137 2.579a7.855 7.855 0 0 0 3.958-1.088v2.792a7.643 7.643 0 0 1-4.709 1.256 6.974 6.974 0 0 1-4.889-1.76z" class="prefix__cls-1" data-name="Path 13585" transform="translate(-460.557 -298.885)"/>
        <path id="prefix__Path_13586" d="M349.216 227.5l-7.916 7.916 2.343 2.355 10.271-10.271z" data-name="Path 13586" transform="translate(-305.89 -227.5)" style="fill:#00a551"/>
        <path id="prefix__Path_13587" d="M312.409 264.6H307.7l6.122 6.111 2.355-2.343z" data-name="Path 13587" transform="translate(-276.058 -260.44)" style="fill:#a5cd39"/>
    </g>
</svg>
